<svg width="275" height="275" viewBox="0 0 275 275" fill="none" xmlns="http://www.w3.org/2000/svg">
<rect width="275" height="275" rx="137.5" fill="#7B00FF"/>
<path d="M89.1875 145.733V135.733L129.188 118.119V129.625L101.801 140.619L102.17 140.023V141.443L101.801 140.847L129.188 151.841V163.347L89.1875 145.733ZM166.545 103.091L147.795 172.75H137.369L156.119 103.091H166.545ZM214.734 145.733L174.734 163.347V151.841L202.121 140.847L201.751 141.443V140.023L202.121 140.619L174.734 129.625V118.119L214.734 135.733V145.733Z" fill="white"/>
<path d="M197 81.6766L138.614 48L61 92.75V182.25L138.614 227L197 193.323" stroke="white" stroke-width="12" stroke-linecap="round"/>
</svg>
