<svg width="541" height="231" viewBox="0 0 541 231" fill="none" xmlns="http://www.w3.org/2000/svg">
<path d="M171 47.8258L100.288 7L6.2876 61.25V169.75L100.288 224L171 183.174" stroke="url(#paint0_linear_205_2)" stroke-width="12" stroke-linecap="round"/>
<path d="M157 60.3003L99.0434 27L22 71.25V159.75L99.0434 204L157 170.7" stroke="url(#paint1_linear_205_2)" stroke-width="4" stroke-linecap="round"/>
<path d="M143 71.7155L96.6347 45L35 80.5V151.5L96.6347 187L143 160.284" stroke="url(#paint2_linear_205_2)" stroke-width="4" stroke-linecap="round"/>
<mask id="path-4-inside-1_205_2" fill="white">
<path d="M92.76 148.72C88.0133 148.72 83.7733 147.813 80.04 146C76.36 144.187 73.48 141.653 71.4 138.4C69.32 135.147 68.28 131.44 68.28 127.28V112.56C68.28 108.4 69.2933 104.72 71.32 101.52C73.4 98.2665 76.2533 95.7598 79.88 93.9998C83.5067 92.1865 87.6667 91.2798 92.36 91.2798C97.0533 91.2798 101.213 91.9998 104.84 93.4398C108.52 94.8265 111.373 96.7998 113.4 99.3598C115.427 101.867 116.44 104.747 116.44 108C116.44 109.973 115.773 111.547 114.44 112.72C113.16 113.84 111.427 114.4 109.24 114.4C108.173 114.4 107 114.24 105.72 113.92C105.827 112.64 105.88 111.387 105.88 110.16C105.88 107.333 104.627 105.04 102.12 103.28C99.6133 101.52 96.36 100.64 92.36 100.64C88.4133 100.64 85.1867 101.76 82.68 104C80.2267 106.187 79 109.04 79 112.56V127.28C79 130.853 80.28 133.76 82.84 136C85.4 138.24 88.7067 139.36 92.76 139.36C96.76 139.36 100.013 138.48 102.52 136.72C105.027 134.96 106.28 132.693 106.28 129.92C106.28 128.64 106.227 127.413 106.12 126.24C107.453 125.973 108.573 125.84 109.48 125.84C111.72 125.84 113.507 126.427 114.84 127.6C116.173 128.773 116.84 130.373 116.84 132.4C116.84 135.547 115.827 138.373 113.8 140.88C111.773 143.333 108.92 145.253 105.24 146.64C101.613 148.027 97.4533 148.72 92.76 148.72ZM146.644 148.72C142.27 148.72 138.27 147.867 134.644 146.16C131.017 144.4 128.137 142.027 126.004 139.04C123.924 136.053 122.884 132.8 122.884 129.28V110.64C122.884 107.12 123.924 103.893 126.004 100.96C128.137 97.9731 131.017 95.6265 134.644 93.9198C138.27 92.1598 142.27 91.2798 146.644 91.2798C151.017 91.2798 155.017 92.1598 158.644 93.9198C162.324 95.6265 165.204 97.9731 167.284 100.96C169.417 103.893 170.484 107.12 170.484 110.64V129.28C170.484 132.8 169.417 136.053 167.284 139.04C165.204 142.027 162.324 144.4 158.644 146.16C155.017 147.867 151.017 148.72 146.644 148.72ZM146.644 139.36C150.644 139.36 153.844 138.427 156.244 136.56C158.644 134.64 159.844 132.16 159.844 129.12V110.88C159.844 107.787 158.644 105.307 156.244 103.44C153.844 101.52 150.644 100.56 146.644 100.56C142.697 100.56 139.524 101.52 137.124 103.44C134.724 105.307 133.524 107.787 133.524 110.88V129.12C133.524 132.16 134.724 134.64 137.124 136.56C139.524 138.427 142.697 139.36 146.644 139.36ZM183.596 148C182.102 148 180.822 147.547 179.756 146.64C178.742 145.68 178.236 144.507 178.236 143.12V96.8798C178.236 95.4931 178.742 94.3465 179.756 93.4398C180.769 92.4798 182.049 91.9998 183.596 91.9998H201.356C206.102 91.9998 210.289 92.9065 213.916 94.7198C217.596 96.5331 220.422 99.0931 222.396 102.4C224.422 105.653 225.436 109.387 225.436 113.6V126.24C225.436 130.453 224.422 134.213 222.396 137.52C220.369 140.827 217.516 143.413 213.836 145.28C210.209 147.093 206.049 148 201.356 148H183.596ZM200.556 138.8C205.196 138.8 208.716 137.76 211.116 135.68C213.516 133.547 214.716 130.427 214.716 126.32V113.44C214.716 109.44 213.516 106.4 211.116 104.32C208.716 102.24 205.196 101.2 200.556 101.2H188.956V138.8H200.556ZM233.47 96.8798C233.47 95.5465 233.977 94.3998 234.99 93.4398C236.057 92.4798 237.337 91.9998 238.83 91.9998H274.51C274.51 95.1998 273.95 97.5465 272.83 99.0398C271.763 100.48 270.003 101.2 267.55 101.2H244.19V115.12H265.47C265.47 118.32 264.91 120.667 263.79 122.16C262.723 123.6 260.963 124.32 258.51 124.32H244.19V138.8H269.23C271.63 138.8 273.363 139.547 274.43 141.04C275.55 142.48 276.11 144.8 276.11 148H238.83C237.337 148 236.057 147.547 234.99 146.64C233.977 145.68 233.47 144.507 233.47 143.12V96.8798ZM303.307 148.72C298.56 148.72 294.32 147.813 290.587 146C286.907 144.187 284.027 141.653 281.947 138.4C279.867 135.147 278.827 131.44 278.827 127.28V112.56C278.827 108.4 279.84 104.72 281.867 101.52C283.947 98.2665 286.8 95.7598 290.427 93.9998C294.054 92.1865 298.214 91.2798 302.907 91.2798C307.6 91.2798 311.76 91.9998 315.387 93.4398C319.067 94.8265 321.92 96.7998 323.947 99.3598C325.974 101.867 326.987 104.747 326.987 108C326.987 109.973 326.32 111.547 324.987 112.72C323.707 113.84 321.974 114.4 319.787 114.4C318.72 114.4 317.547 114.24 316.267 113.92C316.374 112.64 316.427 111.387 316.427 110.16C316.427 107.333 315.174 105.04 312.667 103.28C310.16 101.52 306.907 100.64 302.907 100.64C298.96 100.64 295.734 101.76 293.227 104C290.774 106.187 289.547 109.04 289.547 112.56V127.28C289.547 130.853 290.827 133.76 293.387 136C295.947 138.24 299.254 139.36 303.307 139.36C307.307 139.36 310.56 138.48 313.067 136.72C315.574 134.96 316.827 132.693 316.827 129.92C316.827 128.64 316.774 127.413 316.667 126.24C318 125.973 319.12 125.84 320.027 125.84C322.267 125.84 324.054 126.427 325.387 127.6C326.72 128.773 327.387 130.373 327.387 132.4C327.387 135.547 326.374 138.373 324.347 140.88C322.32 143.333 319.467 145.253 315.787 146.64C312.16 148.027 308 148.72 303.307 148.72ZM335.111 96.8798C335.111 95.4931 335.617 94.3465 336.631 93.4398C337.644 92.4798 338.924 91.9998 340.471 91.9998H361.831C367.591 91.9998 372.044 93.5198 375.191 96.5598C378.391 99.5998 379.991 103.867 379.991 109.36C379.991 112.507 379.351 115.173 378.071 117.36C376.791 119.493 374.844 121.2 372.231 122.48V122.72C376.924 124.8 379.271 128.747 379.271 134.56V140.8C379.271 143.36 378.364 145.333 376.551 146.72C374.737 148.053 372.071 148.72 368.551 148.72V135.04C368.551 132.213 367.991 130.133 366.871 128.8C365.751 127.467 364.044 126.8 361.751 126.8H345.671V140.8C345.671 143.413 344.764 145.387 342.951 146.72C341.191 148.053 338.577 148.72 335.111 148.72V96.8798ZM361.271 117.68C363.831 117.68 365.804 116.96 367.191 115.52C368.577 114.027 369.271 111.947 369.271 109.28C369.271 103.84 366.604 101.12 361.271 101.12H345.671V117.68H361.271ZM394.306 148.72C392.013 148.453 390.2 147.653 388.866 146.32C387.586 144.987 386.946 143.307 386.946 141.28C386.946 139.733 387.32 138.133 388.066 136.48L406.386 94.7998C407.4 92.4531 409.16 91.2798 411.666 91.2798C414.12 91.2798 415.853 92.4531 416.866 94.7998L435.186 136.48C435.933 138.24 436.306 139.84 436.306 141.28C436.306 143.307 435.64 144.987 434.306 146.32C433.026 147.653 431.213 148.453 428.866 148.72L422.146 133.52H401.106L394.306 148.72ZM418.866 124.4L410.066 102.48L409.106 102.88L411.026 107.84L404.306 124.4H418.866ZM444.095 96.8798C444.095 95.5465 444.602 94.3998 445.615 93.4398C446.682 92.4798 447.962 91.9998 449.455 91.9998H485.695C485.695 95.1998 485.135 97.5465 484.015 99.0398C482.948 100.48 481.188 101.2 478.735 101.2H454.815V114.72H476.095C476.095 117.92 475.535 120.267 474.415 121.76C473.348 123.2 471.588 123.92 469.135 123.92H454.815V141.12C454.815 143.787 453.962 145.733 452.255 146.96C450.548 148.133 447.828 148.72 444.095 148.72V96.8798ZM508.004 101.28H488.724C488.724 95.0931 491.524 91.9998 497.124 91.9998H538.004C538.004 98.1865 535.178 101.28 529.524 101.28H518.724V140.8C518.724 143.36 517.818 145.333 516.004 146.72C514.191 148.053 511.524 148.72 508.004 148.72V101.28Z"/>
</mask>
<path d="M92.76 148.72C88.0133 148.72 83.7733 147.813 80.04 146C76.36 144.187 73.48 141.653 71.4 138.4C69.32 135.147 68.28 131.44 68.28 127.28V112.56C68.28 108.4 69.2933 104.72 71.32 101.52C73.4 98.2665 76.2533 95.7598 79.88 93.9998C83.5067 92.1865 87.6667 91.2798 92.36 91.2798C97.0533 91.2798 101.213 91.9998 104.84 93.4398C108.52 94.8265 111.373 96.7998 113.4 99.3598C115.427 101.867 116.44 104.747 116.44 108C116.44 109.973 115.773 111.547 114.44 112.72C113.16 113.84 111.427 114.4 109.24 114.4C108.173 114.4 107 114.24 105.72 113.92C105.827 112.64 105.88 111.387 105.88 110.16C105.88 107.333 104.627 105.04 102.12 103.28C99.6133 101.52 96.36 100.64 92.36 100.64C88.4133 100.64 85.1867 101.76 82.68 104C80.2267 106.187 79 109.04 79 112.56V127.28C79 130.853 80.28 133.76 82.84 136C85.4 138.24 88.7067 139.36 92.76 139.36C96.76 139.36 100.013 138.48 102.52 136.72C105.027 134.96 106.28 132.693 106.28 129.92C106.28 128.64 106.227 127.413 106.12 126.24C107.453 125.973 108.573 125.84 109.48 125.84C111.72 125.84 113.507 126.427 114.84 127.6C116.173 128.773 116.84 130.373 116.84 132.4C116.84 135.547 115.827 138.373 113.8 140.88C111.773 143.333 108.92 145.253 105.24 146.64C101.613 148.027 97.4533 148.72 92.76 148.72ZM146.644 148.72C142.27 148.72 138.27 147.867 134.644 146.16C131.017 144.4 128.137 142.027 126.004 139.04C123.924 136.053 122.884 132.8 122.884 129.28V110.64C122.884 107.12 123.924 103.893 126.004 100.96C128.137 97.9731 131.017 95.6265 134.644 93.9198C138.27 92.1598 142.27 91.2798 146.644 91.2798C151.017 91.2798 155.017 92.1598 158.644 93.9198C162.324 95.6265 165.204 97.9731 167.284 100.96C169.417 103.893 170.484 107.12 170.484 110.64V129.28C170.484 132.8 169.417 136.053 167.284 139.04C165.204 142.027 162.324 144.4 158.644 146.16C155.017 147.867 151.017 148.72 146.644 148.72ZM146.644 139.36C150.644 139.36 153.844 138.427 156.244 136.56C158.644 134.64 159.844 132.16 159.844 129.12V110.88C159.844 107.787 158.644 105.307 156.244 103.44C153.844 101.52 150.644 100.56 146.644 100.56C142.697 100.56 139.524 101.52 137.124 103.44C134.724 105.307 133.524 107.787 133.524 110.88V129.12C133.524 132.16 134.724 134.64 137.124 136.56C139.524 138.427 142.697 139.36 146.644 139.36ZM183.596 148C182.102 148 180.822 147.547 179.756 146.64C178.742 145.68 178.236 144.507 178.236 143.12V96.8798C178.236 95.4931 178.742 94.3465 179.756 93.4398C180.769 92.4798 182.049 91.9998 183.596 91.9998H201.356C206.102 91.9998 210.289 92.9065 213.916 94.7198C217.596 96.5331 220.422 99.0931 222.396 102.4C224.422 105.653 225.436 109.387 225.436 113.6V126.24C225.436 130.453 224.422 134.213 222.396 137.52C220.369 140.827 217.516 143.413 213.836 145.28C210.209 147.093 206.049 148 201.356 148H183.596ZM200.556 138.8C205.196 138.8 208.716 137.76 211.116 135.68C213.516 133.547 214.716 130.427 214.716 126.32V113.44C214.716 109.44 213.516 106.4 211.116 104.32C208.716 102.24 205.196 101.2 200.556 101.2H188.956V138.8H200.556ZM233.47 96.8798C233.47 95.5465 233.977 94.3998 234.99 93.4398C236.057 92.4798 237.337 91.9998 238.83 91.9998H274.51C274.51 95.1998 273.95 97.5465 272.83 99.0398C271.763 100.48 270.003 101.2 267.55 101.2H244.19V115.12H265.47C265.47 118.32 264.91 120.667 263.79 122.16C262.723 123.6 260.963 124.32 258.51 124.32H244.19V138.8H269.23C271.63 138.8 273.363 139.547 274.43 141.04C275.55 142.48 276.11 144.8 276.11 148H238.83C237.337 148 236.057 147.547 234.99 146.64C233.977 145.68 233.47 144.507 233.47 143.12V96.8798ZM303.307 148.72C298.56 148.72 294.32 147.813 290.587 146C286.907 144.187 284.027 141.653 281.947 138.4C279.867 135.147 278.827 131.44 278.827 127.28V112.56C278.827 108.4 279.84 104.72 281.867 101.52C283.947 98.2665 286.8 95.7598 290.427 93.9998C294.054 92.1865 298.214 91.2798 302.907 91.2798C307.6 91.2798 311.76 91.9998 315.387 93.4398C319.067 94.8265 321.92 96.7998 323.947 99.3598C325.974 101.867 326.987 104.747 326.987 108C326.987 109.973 326.32 111.547 324.987 112.72C323.707 113.84 321.974 114.4 319.787 114.4C318.72 114.4 317.547 114.24 316.267 113.92C316.374 112.64 316.427 111.387 316.427 110.16C316.427 107.333 315.174 105.04 312.667 103.28C310.16 101.52 306.907 100.64 302.907 100.64C298.96 100.64 295.734 101.76 293.227 104C290.774 106.187 289.547 109.04 289.547 112.56V127.28C289.547 130.853 290.827 133.76 293.387 136C295.947 138.24 299.254 139.36 303.307 139.36C307.307 139.36 310.56 138.48 313.067 136.72C315.574 134.96 316.827 132.693 316.827 129.92C316.827 128.64 316.774 127.413 316.667 126.24C318 125.973 319.12 125.84 320.027 125.84C322.267 125.84 324.054 126.427 325.387 127.6C326.72 128.773 327.387 130.373 327.387 132.4C327.387 135.547 326.374 138.373 324.347 140.88C322.32 143.333 319.467 145.253 315.787 146.64C312.16 148.027 308 148.72 303.307 148.72ZM335.111 96.8798C335.111 95.4931 335.617 94.3465 336.631 93.4398C337.644 92.4798 338.924 91.9998 340.471 91.9998H361.831C367.591 91.9998 372.044 93.5198 375.191 96.5598C378.391 99.5998 379.991 103.867 379.991 109.36C379.991 112.507 379.351 115.173 378.071 117.36C376.791 119.493 374.844 121.2 372.231 122.48V122.72C376.924 124.8 379.271 128.747 379.271 134.56V140.8C379.271 143.36 378.364 145.333 376.551 146.72C374.737 148.053 372.071 148.72 368.551 148.72V135.04C368.551 132.213 367.991 130.133 366.871 128.8C365.751 127.467 364.044 126.8 361.751 126.8H345.671V140.8C345.671 143.413 344.764 145.387 342.951 146.72C341.191 148.053 338.577 148.72 335.111 148.72V96.8798ZM361.271 117.68C363.831 117.68 365.804 116.96 367.191 115.52C368.577 114.027 369.271 111.947 369.271 109.28C369.271 103.84 366.604 101.12 361.271 101.12H345.671V117.68H361.271ZM394.306 148.72C392.013 148.453 390.2 147.653 388.866 146.32C387.586 144.987 386.946 143.307 386.946 141.28C386.946 139.733 387.32 138.133 388.066 136.48L406.386 94.7998C407.4 92.4531 409.16 91.2798 411.666 91.2798C414.12 91.2798 415.853 92.4531 416.866 94.7998L435.186 136.48C435.933 138.24 436.306 139.84 436.306 141.28C436.306 143.307 435.64 144.987 434.306 146.32C433.026 147.653 431.213 148.453 428.866 148.72L422.146 133.52H401.106L394.306 148.72ZM418.866 124.4L410.066 102.48L409.106 102.88L411.026 107.84L404.306 124.4H418.866ZM444.095 96.8798C444.095 95.5465 444.602 94.3998 445.615 93.4398C446.682 92.4798 447.962 91.9998 449.455 91.9998H485.695C485.695 95.1998 485.135 97.5465 484.015 99.0398C482.948 100.48 481.188 101.2 478.735 101.2H454.815V114.72H476.095C476.095 117.92 475.535 120.267 474.415 121.76C473.348 123.2 471.588 123.92 469.135 123.92H454.815V141.12C454.815 143.787 453.962 145.733 452.255 146.96C450.548 148.133 447.828 148.72 444.095 148.72V96.8798ZM508.004 101.28H488.724C488.724 95.0931 491.524 91.9998 497.124 91.9998H538.004C538.004 98.1865 535.178 101.28 529.524 101.28H518.724V140.8C518.724 143.36 517.818 145.333 516.004 146.72C514.191 148.053 511.524 148.72 508.004 148.72V101.28Z" fill="url(#paint3_linear_205_2)" stroke="white" stroke-width="2" mask="url(#path-4-inside-1_205_2)"/>
<defs>
<linearGradient id="paint0_linear_205_2" x1="88.6438" y1="7" x2="88.6438" y2="224" gradientUnits="userSpaceOnUse">
<stop stop-color="#FFE100"/>
<stop offset="1" stop-color="#AC003C"/>
</linearGradient>
<linearGradient id="paint1_linear_205_2" x1="89.5" y1="27" x2="89.5" y2="204" gradientUnits="userSpaceOnUse">
<stop stop-color="#BA2731"/>
<stop offset="1" stop-color="#FAD503"/>
</linearGradient>
<linearGradient id="paint2_linear_205_2" x1="89" y1="34" x2="89" y2="187" gradientUnits="userSpaceOnUse">
<stop stop-color="white"/>
<stop offset="1" stop-color="#999999"/>
</linearGradient>
<linearGradient id="paint3_linear_205_2" x1="367" y1="-7" x2="367" y2="229" gradientUnits="userSpaceOnUse">
<stop offset="0.14914" stop-color="#FFF200"/>
<stop offset="1" stop-color="#FF181B"/>
</linearGradient>
</defs>
</svg>
