<svg width="198" height="31" viewBox="0 0 198 31" fill="none" xmlns="http://www.w3.org/2000/svg">
<path d="M19.8182 10.3125C19.6193 9.62121 19.34 9.01042 18.9801 8.48011C18.6203 7.94034 18.1799 7.4858 17.6591 7.11648C17.1477 6.73769 16.5606 6.44886 15.8977 6.25C15.2443 6.05114 14.5199 5.9517 13.7244 5.9517C12.2377 5.9517 10.9309 6.32102 9.80398 7.05966C8.68655 7.79829 7.81534 8.87311 7.19034 10.2841C6.56534 11.6856 6.25284 13.3996 6.25284 15.4261C6.25284 17.4527 6.56061 19.1761 7.17614 20.5966C7.79167 22.017 8.66288 23.1013 9.78977 23.8494C10.9167 24.5881 12.2472 24.9574 13.7812 24.9574C15.1733 24.9574 16.3617 24.7112 17.3466 24.2188C18.3409 23.7169 19.0985 23.0114 19.6193 22.1023C20.1496 21.1932 20.4148 20.1184 20.4148 18.8778L21.6648 19.0625H14.1648V14.4318H26.3381V18.0966C26.3381 20.6534 25.7983 22.8504 24.7188 24.6875C23.6392 26.5152 22.1525 27.9261 20.2585 28.9205C18.3646 29.9053 16.196 30.3977 13.7528 30.3977C11.0256 30.3977 8.62974 29.7964 6.56534 28.5938C4.50095 27.3816 2.8911 25.6629 1.7358 23.4375C0.589962 21.2027 0.0170455 18.5511 0.0170455 15.483C0.0170455 13.125 0.357955 11.0227 1.03977 9.17614C1.73106 7.32008 2.69697 5.74811 3.9375 4.46023C5.17803 3.17235 6.62216 2.19223 8.26989 1.51989C9.91761 0.847537 11.7027 0.511363 13.625 0.511363C15.2727 0.511363 16.8068 0.75284 18.2273 1.2358C19.6477 1.70928 20.9072 2.38163 22.0057 3.25284C23.1136 4.12405 24.018 5.16098 24.7188 6.36364C25.4195 7.55682 25.8693 8.87311 26.0682 10.3125H19.8182ZM48.9268 0.90909H55.0774V19.8011C55.0774 21.9223 54.5708 23.7784 53.5575 25.3693C52.5537 26.9602 51.1475 28.2008 49.3388 29.0909C47.5301 29.9716 45.4231 30.4119 43.0178 30.4119C40.603 30.4119 38.4912 29.9716 36.6825 29.0909C34.8738 28.2008 33.4676 26.9602 32.4638 25.3693C31.46 23.7784 30.9581 21.9223 30.9581 19.8011V0.90909H37.1087V19.2756C37.1087 20.3835 37.3501 21.3684 37.8331 22.2301C38.3255 23.0919 39.0168 23.7689 39.907 24.2614C40.7971 24.7538 41.834 25 43.0178 25C44.2109 25 45.2479 24.7538 46.1286 24.2614C47.0187 23.7689 47.7053 23.0919 48.1882 22.2301C48.6806 21.3684 48.9268 20.3835 48.9268 19.2756V0.90909ZM60.1378 30V0.90909H71.6151C73.812 0.90909 75.687 1.30208 77.2401 2.08807C78.8026 2.86458 79.991 3.9678 80.8054 5.39773C81.6293 6.81818 82.0412 8.48958 82.0412 10.4119C82.0412 12.3437 81.6245 14.0057 80.7912 15.3977C79.9579 16.7803 78.7505 17.8409 77.169 18.5795C75.5971 19.3182 73.6937 19.6875 71.4588 19.6875H63.7741V14.7443H70.4645C71.6387 14.7443 72.6141 14.5833 73.3906 14.2614C74.1671 13.9394 74.7448 13.4564 75.1236 12.8125C75.5118 12.1686 75.706 11.3684 75.706 10.4119C75.706 9.44602 75.5118 8.63163 75.1236 7.96875C74.7448 7.30587 74.1624 6.80398 73.3764 6.46307C72.5999 6.11269 71.6198 5.9375 70.4361 5.9375H66.2884V30H60.1378ZM75.848 16.7614L83.0781 30H76.2884L69.2145 16.7614H75.848ZM104.357 0.90909H110.507V19.8011C110.507 21.9223 110 23.7784 108.987 25.3693C107.983 26.9602 106.577 28.2008 104.768 29.0909C102.96 29.9716 100.853 30.4119 98.4474 30.4119C96.0327 30.4119 93.9209 29.9716 92.1122 29.0909C90.3035 28.2008 88.8973 26.9602 87.8935 25.3693C86.8897 23.7784 86.3878 21.9223 86.3878 19.8011V0.90909H92.5384V19.2756C92.5384 20.3835 92.7798 21.3684 93.2628 22.2301C93.7552 23.0919 94.4465 23.7689 95.3366 24.2614C96.2268 24.7538 97.2637 25 98.4474 25C99.6406 25 100.678 24.7538 101.558 24.2614C102.448 23.7689 103.135 23.0919 103.618 22.2301C104.11 21.3684 104.357 20.3835 104.357 19.2756V0.90909ZM115.567 30V0.90909H121.718V12.9119H134.204V0.90909H140.34V30H134.204V17.983H121.718V30H115.567ZM163.38 0.90909H169.531V19.8011C169.531 21.9223 169.024 23.7784 168.011 25.3693C167.007 26.9602 165.601 28.2008 163.792 29.0909C161.983 29.9716 159.876 30.4119 157.471 30.4119C155.056 30.4119 152.944 29.9716 151.136 29.0909C149.327 28.2008 147.921 26.9602 146.917 25.3693C145.913 23.7784 145.411 21.9223 145.411 19.8011V0.90909H151.562V19.2756C151.562 20.3835 151.803 21.3684 152.286 22.2301C152.779 23.0919 153.47 23.7689 154.36 24.2614C155.25 24.7538 156.287 25 157.471 25C158.664 25 159.701 24.7538 160.582 24.2614C161.472 23.7689 162.158 23.0919 162.641 22.2301C163.134 21.3684 163.38 20.3835 163.38 19.2756V0.90909ZM174.591 30V0.90909H186.239C188.379 0.90909 190.164 1.22633 191.594 1.8608C193.024 2.49527 194.098 3.37595 194.818 4.50284C195.538 5.62027 195.898 6.90814 195.898 8.36648C195.898 9.50284 195.67 10.5019 195.216 11.3636C194.761 12.2159 194.136 12.9167 193.341 13.4659C192.555 14.0057 191.655 14.3892 190.642 14.6165V14.9006C191.75 14.9479 192.787 15.2604 193.753 15.8381C194.728 16.4157 195.519 17.2254 196.125 18.267C196.731 19.2992 197.034 20.5303 197.034 21.9602C197.034 23.5038 196.651 24.8816 195.884 26.0938C195.126 27.2964 194.004 28.2481 192.517 28.9489C191.03 29.6496 189.198 30 187.02 30H174.591ZM180.741 24.9716H185.756C187.47 24.9716 188.72 24.6449 189.506 23.9915C190.292 23.3286 190.685 22.4479 190.685 21.3494C190.685 20.5445 190.491 19.8343 190.102 19.2188C189.714 18.6032 189.16 18.1203 188.44 17.7699C187.73 17.4195 186.883 17.2443 185.898 17.2443H180.741V24.9716ZM180.741 13.0824H185.301C186.144 13.0824 186.892 12.9356 187.545 12.642C188.208 12.339 188.729 11.9129 189.108 11.3636C189.496 10.8144 189.69 10.1562 189.69 9.3892C189.69 8.33807 189.316 7.49053 188.568 6.84659C187.83 6.20265 186.778 5.88068 185.415 5.88068H180.741V13.0824Z" fill="url(#paint0_linear_59_2)"/>
<defs>
<linearGradient id="paint0_linear_59_2" x1="79.5286" y1="-102.062" x2="74.8931" y2="108.464" gradientUnits="userSpaceOnUse">
<stop offset="0.274038" stop-color="#EFEFEF"/>
<stop offset="1" stop-color="#101010"/>
</linearGradient>
</defs>
</svg>
